<svg width="100" height="100" viewBox="0 0 100 100" fill="none" xmlns="http://www.w3.org/2000/svg">
<path d="M71 28C71 32.9618 67.0275 37 62.1422 37H53V19H62.1422C67.0275 19 71 23.0382 71 28Z" fill="#FFF3D9"/>
<path d="M61.3988 41.0652H61.112C56.1842 41.0652 52.1771 45.0741 52.1771 50C52.1771 54.9278 56.1842 58.9348 61.112 58.9348H61.3988C66.3266 58.9348 70.3336 54.9278 70.3336 50C70.3336 45.0741 66.3266 41.0652 61.3988 41.0652ZM38.6012 18.8432C33.6734 18.8432 29.6664 22.8521 29.6664 27.778C29.6664 32.7039 33.6734 36.7128 38.6012 36.7128H47.8229V18.8432H38.6012ZM38.6012 18.8432C33.6734 18.8432 29.6664 22.8521 29.6664 27.778C29.6664 32.7039 33.6734 36.7128 38.6012 36.7128H47.8229V18.8432H38.6012ZM61.3988 41.0652H61.112C56.1842 41.0652 52.1771 45.0741 52.1771 50C52.1771 54.9278 56.1842 58.9348 61.112 58.9348H61.3988C66.3266 58.9348 70.3336 54.9278 70.3336 50C70.3336 45.0741 66.3266 41.0652 61.3988 41.0652ZM38.6012 41.0652C33.6734 41.0652 29.6664 45.0741 29.6664 50C29.6664 54.9278 33.6734 58.9348 38.6012 58.9348H47.8229V41.0652H38.6012ZM38.6012 18.8432C33.6734 18.8432 29.6664 22.8521 29.6664 27.778C29.6664 32.7039 33.6734 36.7128 38.6012 36.7128H47.8229V18.8432H38.6012ZM38.6012 18.8432C33.6734 18.8432 29.6664 22.8521 29.6664 27.778C29.6664 32.7039 33.6734 36.7128 38.6012 36.7128H47.8229V18.8432H38.6012ZM38.6012 41.0652C33.6734 41.0652 29.6664 45.0741 29.6664 50C29.6664 54.9278 33.6734 58.9348 38.6012 58.9348H47.8229V41.0652H38.6012ZM61.3988 41.0652H61.112C56.1842 41.0652 52.1771 45.0741 52.1771 50C52.1771 54.9278 56.1842 58.9348 61.112 58.9348H61.3988C66.3266 58.9348 70.3336 54.9278 70.3336 50C70.3336 45.0741 66.3266 41.0652 61.3988 41.0652ZM61.3988 41.0652H61.112C56.1842 41.0652 52.1771 45.0741 52.1771 50C52.1771 54.9278 56.1842 58.9348 61.112 58.9348H61.3988C66.3266 58.9348 70.3336 54.9278 70.3336 50C70.3336 45.0741 66.3266 41.0652 61.3988 41.0652ZM29.6664 72.222C29.6664 77.1479 33.7066 81.1569 38.6715 81.1569C43.7183 81.1569 47.8229 77.0835 47.8229 72.0777V63.2872H38.6012C33.6734 63.2872 29.6664 67.2961 29.6664 72.222ZM29.6664 50C29.6664 54.9278 33.6734 58.9348 38.6012 58.9348H47.8229V41.0652H38.6012C33.6734 41.0652 29.6664 45.0741 29.6664 50ZM29.6664 27.778C29.6664 32.7039 33.6734 36.7128 38.6012 36.7128H47.8229V18.8432H38.6012C33.6734 18.8432 29.6664 22.8521 29.6664 27.778ZM89.1943 0H10.8057C4.83808 0 0 4.83808 0 10.8057V89.1943C0 95.1619 4.83808 100 10.8057 100H89.1943C95.1619 100 100 95.1619 100 89.1943V10.8057C100 4.83808 95.1619 0 89.1943 0ZM74.6859 50C74.6859 57.3274 68.7261 63.2872 61.3988 63.2872H61.112C57.6746 63.2872 54.5377 61.9743 52.1771 59.8264V72.0777C52.1771 79.483 46.1178 85.5092 38.6715 85.5092C31.3051 85.5092 25.3141 79.5494 25.3141 72.222C25.3141 67.579 27.7058 63.4862 31.3227 61.112C27.7058 58.7359 25.3141 54.643 25.3141 50C25.3141 45.359 27.7058 41.2661 31.3227 38.89C27.7058 36.5139 25.3141 32.421 25.3141 27.778C25.3141 20.4506 31.2739 14.4908 38.6012 14.4908H61.3988C68.7261 14.4908 74.6859 20.4506 74.6859 27.778C74.6859 32.421 72.2942 36.5139 68.6773 38.89C72.2942 41.2661 74.6859 45.359 74.6859 50ZM61.3988 41.0652H61.112C56.1842 41.0652 52.1771 45.0741 52.1771 50C52.1771 54.9278 56.1842 58.9348 61.112 58.9348H61.3988C66.3266 58.9348 70.3336 54.9278 70.3336 50C70.3336 45.0741 66.3266 41.0652 61.3988 41.0652ZM29.6664 72.222C29.6664 77.1479 33.7066 81.1569 38.6715 81.1569C43.7183 81.1569 47.8229 77.0835 47.8229 72.0777V63.2872H38.6012C33.6734 63.2872 29.6664 67.2961 29.6664 72.222ZM29.6664 50C29.6664 54.9278 33.6734 58.9348 38.6012 58.9348H47.8229V41.0652H38.6012C33.6734 41.0652 29.6664 45.0741 29.6664 50ZM29.6664 27.778C29.6664 32.7039 33.6734 36.7128 38.6012 36.7128H47.8229V18.8432H38.6012C33.6734 18.8432 29.6664 22.8521 29.6664 27.778ZM38.6012 18.8432C33.6734 18.8432 29.6664 22.8521 29.6664 27.778C29.6664 32.7039 33.6734 36.7128 38.6012 36.7128H47.8229V18.8432H38.6012ZM38.6012 41.0652C33.6734 41.0652 29.6664 45.0741 29.6664 50C29.6664 54.9278 33.6734 58.9348 38.6012 58.9348H47.8229V41.0652H38.6012ZM38.6012 63.2872C33.6734 63.2872 29.6664 67.2961 29.6664 72.222C29.6664 77.1479 33.7066 81.1569 38.6715 81.1569C43.7183 81.1569 47.8229 77.0835 47.8229 72.0777V63.2872H38.6012ZM61.3988 41.0652H61.112C56.1842 41.0652 52.1771 45.0741 52.1771 50C52.1771 54.9278 56.1842 58.9348 61.112 58.9348H61.3988C66.3266 58.9348 70.3336 54.9278 70.3336 50C70.3336 45.0741 66.3266 41.0652 61.3988 41.0652ZM61.3988 41.0652H61.112C56.1842 41.0652 52.1771 45.0741 52.1771 50C52.1771 54.9278 56.1842 58.9348 61.112 58.9348H61.3988C66.3266 58.9348 70.3336 54.9278 70.3336 50C70.3336 45.0741 66.3266 41.0652 61.3988 41.0652ZM38.6012 41.0652C33.6734 41.0652 29.6664 45.0741 29.6664 50C29.6664 54.9278 33.6734 58.9348 38.6012 58.9348H47.8229V41.0652H38.6012ZM38.6012 18.8432C33.6734 18.8432 29.6664 22.8521 29.6664 27.778C29.6664 32.7039 33.6734 36.7128 38.6012 36.7128H47.8229V18.8432H38.6012ZM38.6012 18.8432C33.6734 18.8432 29.6664 22.8521 29.6664 27.778C29.6664 32.7039 33.6734 36.7128 38.6012 36.7128H47.8229V18.8432H38.6012ZM38.6012 41.0652C33.6734 41.0652 29.6664 45.0741 29.6664 50C29.6664 54.9278 33.6734 58.9348 38.6012 58.9348H47.8229V41.0652H38.6012ZM61.3988 41.0652H61.112C56.1842 41.0652 52.1771 45.0741 52.1771 50C52.1771 54.9278 56.1842 58.9348 61.112 58.9348H61.3988C66.3266 58.9348 70.3336 54.9278 70.3336 50C70.3336 45.0741 66.3266 41.0652 61.3988 41.0652ZM38.6012 18.8432C33.6734 18.8432 29.6664 22.8521 29.6664 27.778C29.6664 32.7039 33.6734 36.7128 38.6012 36.7128H47.8229V18.8432H38.6012ZM38.6012 18.8432C33.6734 18.8432 29.6664 22.8521 29.6664 27.778C29.6664 32.7039 33.6734 36.7128 38.6012 36.7128H47.8229V18.8432H38.6012ZM61.3988 41.0652H61.112C56.1842 41.0652 52.1771 45.0741 52.1771 50C52.1771 54.9278 56.1842 58.9348 61.112 58.9348H61.3988C66.3266 58.9348 70.3336 54.9278 70.3336 50C70.3336 45.0741 66.3266 41.0652 61.3988 41.0652Z" fill="#FFF3D9"/>
</svg>
