<svg width="100" height="100" viewBox="0 0 100 100" fill="none" xmlns="http://www.w3.org/2000/svg">
<path d="M49.9938 0C22.3875 0 0 22.9528 0 51.2672C0 73.9137 14.325 93.1261 34.2 99.9111C36.7 100.383 37.6125 98.8005 37.6125 97.4409C37.6125 96.2218 37.5687 92.9984 37.5438 88.7219C23.6375 91.8176 20.7 81.8476 20.7 81.8476C18.4312 75.9243 15.15 74.3477 15.15 74.3477C10.6062 71.169 15.4875 71.2328 15.4875 71.2328C20.5062 71.5967 23.1438 76.5179 23.1438 76.5179C27.6063 84.3496 34.85 82.0901 37.7 80.7752C38.15 77.4625 39.4437 75.203 40.875 73.92C29.775 72.6243 18.1 68.2265 18.1 48.5864C18.1 42.9886 20.05 38.4121 23.25 34.825C22.7313 33.5292 21.0188 28.3144 23.7375 21.2613C23.7375 21.2613 27.9375 19.8826 37.4875 26.5145C41.475 25.3783 45.75 24.8102 50.0063 24.7911C54.25 24.8166 58.5312 25.3783 62.525 26.5208C72.0687 19.889 76.2625 21.2677 76.2625 21.2677C78.9875 28.3272 77.275 33.5356 76.7625 34.8313C79.9688 38.4185 81.9 42.995 81.9 48.5928C81.9 68.284 70.2125 72.6179 59.075 73.8881C60.8687 75.4711 62.4688 78.5987 62.4688 83.3794C62.4688 90.2347 62.4062 95.7622 62.4062 97.4409C62.4062 98.8132 63.3062 100.409 65.8438 99.9047C85.6875 93.1133 100 73.9073 100 51.2672C100 22.9528 77.6125 0 49.9938 0Z" fill="#FFF3D9"/>
</svg>
