<svg width="512" height="500" viewBox="0 0 512 500" fill="none" xmlns="http://www.w3.org/2000/svg">
<path d="M208 167.653H207.573L181.12 256.613H235.307L208 167.653ZM208 167.653H207.573L181.12 256.613H235.307L208 167.653ZM421.333 0.400024H90.6667C40.5333 0.400024 0 40.9334 0 91.0667V408.933C0 459.067 40.5333 499.6 90.6667 499.6H421.333C471.467 499.6 512 459.067 512 408.933V91.0667C512 40.9334 471.467 0.400024 421.333 0.400024ZM313.6 353.04H269.013C267.52 353.253 266.027 352.187 265.6 350.693L248.107 299.92H168.747L152.533 350.053C152.107 351.973 150.4 353.253 148.48 353.04H108.373C106.027 353.04 105.387 351.76 106.027 349.2L174.72 151.44C175.36 149.307 176 146.96 176.853 144.4C177.707 139.92 178.133 135.227 178.133 130.533C177.92 129.467 178.773 128.4 179.84 128.187H235.093C236.8 128.187 237.653 128.827 237.867 129.893L315.733 349.627C316.373 351.973 315.733 353.04 313.6 353.04ZM386.133 349.84C386.133 352.187 385.28 353.253 383.36 353.253H341.547C339.413 353.253 338.347 351.973 338.347 349.84V185.573C338.347 183.44 339.2 182.587 341.12 182.587H383.36C385.28 182.587 386.133 183.653 386.133 185.573V349.84ZM381.653 157.2C376.747 162.32 369.493 165.093 362.24 164.667C355.2 164.88 348.373 162.107 343.253 157.2C338.347 151.867 335.787 144.827 336 137.573C335.787 130.32 338.56 123.493 343.68 118.587C348.8 113.68 355.627 111.12 362.667 111.12C370.987 111.12 377.387 113.68 382.08 118.587C386.773 123.707 389.333 130.533 389.12 137.573C389.333 144.827 386.773 151.867 381.653 157.2ZM207.573 167.653L181.12 256.613H235.307L208 167.653H207.573Z" fill="#FFF3D9"/>
</svg>
