<svg width="100" height="100" viewBox="0 0 100 100" fill="none" xmlns="http://www.w3.org/2000/svg">
<path d="M43.925 37.1582C44.6042 38.2522 44.9584 39.5641 44.9167 40.9402C44.9167 42.8205 44.5 44.2735 43.625 45.3419C41.6959 47.7009 38.2709 48.3761 35.4167 48.3761H33.2084C32.7084 48.3761 32.1667 48.3334 31.5834 48.2906V33.9317C31.875 33.8889 32.4584 33.8462 33.2917 33.8889C34.0834 33.8462 35.0417 33.8462 36.125 33.8462C38.9959 33.8462 42.275 34.5 43.925 37.1582Z" fill="#FFF3D9"/>
<path d="M82.2917 0H17.7083C7.91667 0 0 8.11966 0 18.1624V81.8376C0 91.8803 7.91667 100 17.7083 100H82.2917C92.0833 100 100 91.8803 100 81.8376V18.1624C100 8.11966 92.0833 0 82.2917 0ZM51.5 49.7863C49.8333 52.1795 47.5 53.9744 44.7917 55C41.9583 56.0684 38.8333 56.453 35.4167 56.453C34.4167 56.453 33.75 56.453 33.3333 56.4102C32.9167 56.3675 32.3333 56.3675 31.5417 56.3675V70.0855C31.5833 70.3846 31.375 70.641 31.0833 70.6838H23C22.6667 70.6838 22.5 70.5128 22.5 70.1282V26.1538C22.5 25.8547 22.625 25.6838 22.9167 25.6838C23.625 25.6838 24.2917 25.6838 25.25 25.641C26.25 25.5983 27.2917 25.5983 28.4167 25.5556C29.5417 25.5128 30.75 25.5128 32.0417 25.4701C33.3333 25.4273 34.5833 25.4273 35.8333 25.4273C39.25 25.4273 42.0833 25.8547 44.4167 26.7521C46.5 27.4786 48.4167 28.6752 50 30.2564C51.3333 31.6239 52.375 33.2906 53.0417 35.1282C53.6667 36.9231 54 38.7607 54 40.6838C54 44.359 53.1667 47.3932 51.5 49.7863ZM81.0417 66.4102C79.875 68.1197 78.25 69.4444 76.375 70.2137C74.3333 71.1111 71.8333 71.5812 68.8333 71.5812C66.9167 71.5812 65.0417 71.4103 63.1667 71.0256C61.7083 70.7692 60.25 70.2991 58.9167 69.6581C58.625 69.4872 58.4167 69.188 58.4583 68.8461V61.4102C58.4583 61.282 58.5 61.1111 58.625 61.0256C58.75 60.9402 58.875 60.9829 59 61.0684C60.625 62.0513 62.3333 62.735 64.1667 63.1624C65.75 63.5897 67.4167 63.8034 69.0833 63.8034C70.6667 63.8034 71.7917 63.5897 72.5417 63.2051C73.2083 62.906 73.6667 62.1795 73.6667 61.4102C73.6667 60.812 73.3333 60.2564 72.6667 59.7008C72 59.1453 70.625 58.5043 68.5833 57.6923C66.4583 56.9231 64.5 55.8974 62.6667 54.6154C61.375 53.6752 60.2917 52.4359 59.5 50.9829C58.8333 49.6154 58.5 48.1197 58.5417 46.6239C58.5417 44.7863 59.0417 43.0342 59.9583 41.453C61 39.7436 62.5417 38.3761 64.3333 37.5214C66.2917 36.4957 68.75 36.0256 71.7083 36.0256C73.4167 36.0256 75.1667 36.1538 76.875 36.4103C78.125 36.5812 79.3333 36.9231 80.4583 37.3932C80.625 37.4359 80.7917 37.6068 80.875 37.7778C80.9167 37.9487 80.9583 38.1197 80.9583 38.2906V45.2564C80.9583 45.4273 80.875 45.5983 80.75 45.6838C80.375 45.7692 80.1667 45.7692 80 45.6838C78.75 45 77.4167 44.5299 76 44.2308C74.4583 43.8889 72.9167 43.6752 71.3333 43.6752C70.5 43.6325 69.625 43.7607 68.8333 43.9744C68.2917 44.1026 67.8333 44.4017 67.5417 44.8291C67.3333 45.1709 67.2083 45.5983 67.2083 45.9829C67.2083 46.3675 67.375 46.7521 67.625 47.094C68 47.5641 68.5 47.9487 69.0417 48.2479C70 48.7607 71 49.2308 72 49.6581C74.25 50.4273 76.4167 51.4957 78.4167 52.7778C79.7917 53.6752 80.9167 54.8718 81.7083 56.3248C82.375 57.6923 82.7083 59.188 82.6667 60.7265C82.7083 62.735 82.125 64.7436 81.0417 66.4102Z" fill="#FFF3D9"/>
</svg>
