<svg width="100" height="100" viewBox="0 0 100 100" fill="none" xmlns="http://www.w3.org/2000/svg">
<g clip-path="url(#clip0_51_72)">
<path fill-rule="evenodd" clip-rule="evenodd" d="M39.6124 66.9207L39.6041 66.9041C39.7541 66.8249 39.9083 66.7416 40.0624 66.6541C40.7874 69.3416 40.7083 71.8541 39.9583 74.1249C39.8749 74.3749 39.7833 74.6249 39.6833 74.8749C39.5833 75.1207 39.4749 75.3666 39.3624 75.6041C38.7833 76.8041 38.0041 77.9332 37.0499 78.9707C34.1458 82.1374 30.0874 83.3374 28.3458 82.3291C26.4666 81.2374 27.4083 76.7707 30.7749 73.2082C34.3999 69.3832 39.6124 66.9207 39.6124 66.9207Z" fill="#FFF3D9"/>
<path fill-rule="evenodd" clip-rule="evenodd" d="M50 0C22.3875 0 0 22.3875 0 50C0 77.6125 22.3875 100 50 100C77.6125 100 100 77.6125 100 50C100 22.3875 77.6125 0 50 0ZM66.3042 44.3333C57.6375 47.6875 50.4667 47.1542 47.525 46.1917C44.1792 45.0917 42.2125 42.8833 41.7375 41.6375C41.55 41.15 41.225 40.3292 41.7375 40.0458C42.05 39.8708 42.175 39.9125 43.0208 40.8417C43.8208 41.7208 47.0333 44.0917 53.1417 43.4042C69.1625 41.6083 78.8125 29.1583 75.7667 22.4625C73.6333 17.775 61.2792 15.6583 45.8542 23.3458C27.0208 32.7292 26 40.4667 25.8375 43.4042C25.3958 51.4875 35.8125 55.7417 41.4458 61.75C41.5792 61.8917 41.7083 62.0333 41.8333 62.1792C43.5375 61.5458 45.9 61.1875 49.6542 61.1208C58.7667 60.9625 63.9167 66.9708 63.7042 72.3417C63.5375 76.5708 59.6542 78.3167 58.9333 78.4375C58.4083 78.5292 58.1208 78.5417 58.05 78.1292C58 77.8458 58.1875 77.7167 58.8 77.3333C59.4167 76.9542 61.2542 75.6917 61.5833 73.4C61.9125 71.1083 60.1917 65.6333 51.4208 64.6083C48.3125 64.2458 45.8667 64.4917 43.7667 65.0458C45.2875 68.3958 45.5792 75.1417 42.0792 80.3583C38.4542 85.7667 31.7042 89.0583 25.1292 87.2292C23.0042 86.6375 19.8 82.2542 22.5667 76.1375C25.1875 70.3417 36.3875 64.675 37.9167 63.9208V63.8958C32.7292 59.4292 20.1042 53.4042 18.3208 44.1917C17.8125 41.5917 19.0375 35.3417 26.7125 28.1625C33.1667 22.125 42.1458 17.5 50.4375 14.5542C64.375 9.60417 79.0958 12.525 81.3625 21.4C83.5917 30.1333 76.0083 40.5792 66.3042 44.3333Z" fill="#FFF3D9"/>
</g>
<defs>
<clipPath id="clip0_51_72">
<rect width="100" height="100" fill="white"/>
</clipPath>
</defs>
</svg>
