<svg width="100" height="110" viewBox="0 0 100 110" fill="none" xmlns="http://www.w3.org/2000/svg">
<path d="M68.2277 12.7986C68.2183 12.7986 66.9638 13.1779 64.8368 13.8133C64.4831 12.698 63.9596 11.3268 63.2145 9.95098C60.814 5.50819 57.2958 3.15882 53.0466 3.15425H53.0325C52.7401 3.15425 52.4429 3.18167 52.1505 3.20909C52.0279 3.06283 51.9006 2.91656 51.7685 2.77944C49.9198 0.859718 47.5429 -0.0772908 44.6991 0.00498311C39.2096 0.155819 33.7436 3.99984 29.3105 10.824C26.1885 15.6233 23.821 21.6567 23.1466 26.3281C16.8412 28.2204 12.4316 29.5413 12.3373 29.5733C9.15865 30.5377 9.05961 30.6337 8.63988 33.5407C8.3239 35.7393 0 98.1257 0 98.1257L69.0624 109.699V12.6615C68.7229 12.6843 68.4211 12.7437 68.2277 12.7986ZM52.2826 17.5842C48.6276 18.6812 44.6378 19.8787 40.6338 21.0808C41.761 16.9031 43.8927 12.7437 46.5148 10.0195C47.491 9.00483 48.854 7.87585 50.4669 7.2268C51.9902 10.2938 52.3156 14.6452 52.2826 17.5842ZM44.8029 3.54276C46.0904 3.51534 47.1751 3.78958 48.1041 4.38378C46.6233 5.12882 45.1849 6.20295 43.8408 7.60161C40.3556 11.2262 37.6863 16.8574 36.6205 22.2829C33.2956 23.2794 30.0462 24.2575 27.0515 25.1534C28.9379 16.606 36.3328 3.78044 44.8029 3.54276ZM34.1209 52.2306C34.4935 57.9258 49.9481 59.1691 50.8159 72.5066C51.4997 83.0011 45.0717 90.1772 35.814 90.7439C24.7029 91.425 18.5861 85.067 18.5861 85.067L20.9394 75.3587C20.9394 75.3587 27.0987 79.8609 32.027 79.5593C35.2481 79.3627 36.3988 76.826 36.2809 75.0296C35.7951 67.6021 23.2126 68.0409 22.4156 55.8324C21.7459 45.5619 28.7069 35.1542 44.0624 34.2126C49.9811 33.8516 53.0089 35.3142 53.0089 35.3142L49.4954 48.0484C49.4954 48.0484 45.5763 46.3206 40.9357 46.604C34.1256 47.0245 34.0549 51.1839 34.1209 52.2306ZM55.9281 16.4872C55.8857 13.795 55.5556 10.047 54.2586 6.80629C58.4229 7.56961 60.4744 12.1404 61.3422 14.8646C59.7387 15.3445 57.9089 15.893 55.9281 16.4872Z" fill="#FFF3D9"/>
<path d="M71.3497 109.434L100 102.532C100 102.532 87.6627 21.7024 87.5872 21.1448C87.5071 20.5917 87.0072 20.2855 86.5969 20.2489C86.1818 20.2169 78.1173 20.0981 78.1173 20.0981C78.1173 20.0981 73.1984 15.4679 71.3497 13.7173V109.434Z" fill="#FFF3D9"/>
</svg>
