<svg width="100" height="100" viewBox="0 0 100 100" fill="none" xmlns="http://www.w3.org/2000/svg">
<path d="M50.691 53.4473L38.8677 87.8038C42.3994 88.8391 46.1332 89.4104 50.0022 89.4104C54.5898 89.4104 58.9929 88.6164 63.0866 87.1759C62.9814 87.0068 62.8855 86.8273 62.8071 86.6325L50.691 53.4473Z" fill="#FFF3D9"/>
<path d="M10.5911 49.9973C10.5911 65.5974 19.657 79.0775 32.8033 85.4644L14.0052 33.96C11.8192 38.861 10.5911 44.2848 10.5911 49.9973Z" fill="#FFF3D9"/>
<path d="M76.603 48.0106C76.603 43.1405 74.8551 39.7687 73.3558 37.1413C71.3574 33.8953 69.4848 31.1473 69.4848 27.9002C69.4848 24.2778 72.2319 20.906 76.1028 20.906C76.2781 20.906 76.4431 20.9276 76.6143 20.9359C69.6045 14.515 60.2642 10.5925 50.0031 10.5925C36.233 10.5925 24.1199 17.6558 17.076 28.356C18 28.3838 18.8692 28.4034 19.6117 28.4034C23.7343 28.4034 30.1161 27.9033 30.1161 27.9033C32.2424 27.7755 32.4899 30.8967 30.3688 31.1473C30.3688 31.1473 28.2332 31.3979 25.8585 31.5236L40.2071 74.2098L48.8307 48.3436L42.6891 31.5226C40.5669 31.3968 38.5572 31.1462 38.5572 31.1462C36.4351 31.0225 36.6826 27.7765 38.8057 27.9023C38.8057 27.9023 45.3154 28.4024 49.1854 28.4024C53.3069 28.4024 59.6909 27.9023 59.6909 27.9023C61.8171 27.7765 62.0656 30.8957 59.9414 31.1462C59.9414 31.1462 57.8038 31.3968 55.4311 31.5226L69.6746 73.885L73.6054 60.7503C75.3078 55.2997 76.603 51.3834 76.603 48.0106Z" fill="#FFF3D9"/>
<path d="M84.5801 31.0923C84.7492 32.3462 84.8461 33.6959 84.8461 35.1447C84.8461 39.1434 84.1006 43.6392 81.8506 49.2599L69.8118 84.062C81.5268 77.2296 89.41 64.5363 89.41 50.0003C89.4111 43.1474 87.6591 36.7048 84.5801 31.0923Z" fill="#FFF3D9"/>
<path d="M50 0C22.3855 0 0 22.3861 0 50C0 77.6139 22.3855 100 50 100C77.6145 100 100 77.6139 100 50C100 22.3861 77.6145 0 50 0ZM50.0021 93.8307C25.8316 93.8307 6.17047 74.1699 6.17047 49.9979C6.17047 25.8301 25.8306 6.16931 50.0021 6.16931C74.1694 6.16931 93.8295 25.8311 93.8295 49.9979C93.8306 74.1679 74.1684 93.8307 50.0021 93.8307Z" fill="#FFF3D9"/>
</svg>
